<?xml version="1.0" encoding="UTF-8"?>
<svg id="katman_1" data-name="katman 1" xmlns="http://www.w3.org/2000/svg" xmlns:xlink="http://www.w3.org/1999/xlink" viewBox="0 0 514.51 186.11">
  <title>Cakıroğlu's Logo</title>
  <defs>
    <style>
      .cls-1 {
        fill: url(#Adsız_degrade_12);
      }
    </style>
    <linearGradient id="Adsız_degrade_12" data-name="Adsız degrade 12" x1="517.08" y1="211.22" x2="5.3" y2="-61.13" gradientUnits="userSpaceOnUse">
      <stop offset="0" stop-color="#95c11f"/>
      <stop offset="1" stop-color="#285f19"/>
    </linearGradient>
  </defs>
  <path class="cls-1" d="M230,39.74h-19.46v66.06h19.46V39.74ZM161.79,78.57l18.5,27.23h22.56l-26.27-38.1,25.85-27.96h-16.79l-23.85,25.07V15.41h-19.46v90.39h19.46v-27.23ZM353.52,29.83c34.98,1.52,42.22-8.1,52.62-17.92,10.4-9.82,12.98-11.12,12.98-11.12-12.13-2.02-24.65-.1-35.88,5.02-13.21,6.02-21.76,16.44-21.76,16.44,16.25-.78,34.51-10.79,34.51-10.79-9.34,11.09-42.46,18.36-42.46,18.36ZM290.93,97.31c2.97,3.21,6.62,5.8,10.84,7.69,4.24,1.9,9.05,2.86,14.29,2.86s10.05-.97,14.29-2.86c4.22-1.9,7.87-4.48,10.84-7.69,2.96-3.2,5.28-6.97,6.89-11.22,1.6-4.23,2.42-8.75,2.42-13.43s-.81-9.2-2.42-13.43c-1.62-4.25-3.93-8.02-6.89-11.22-2.97-3.21-6.62-5.8-10.84-7.69-4.24-1.9-9.05-2.86-14.29-2.86s-10.06.96-14.29,2.86c-4.22,1.89-7.87,4.48-10.84,7.69-2.96,3.2-5.28,6.97-6.89,11.22-1.61,4.23-2.42,8.74-2.42,13.43s.81,9.2,2.42,13.43c1.61,4.24,3.93,8.02,6.89,11.22ZM302.5,64.7c.5-2.94,1.37-5.77,2.59-8.41,1.17-2.53,2.73-4.69,4.64-6.44,1.66-1.52,3.73-2.26,6.32-2.26s4.66.74,6.32,2.27c1.91,1.75,3.47,3.91,4.64,6.44,1.22,2.64,2.09,5.47,2.59,8.42.51,3.04.77,5.7.77,7.91s-.26,4.9-.77,7.97c-.5,2.97-1.37,5.82-2.59,8.46-1.17,2.53-2.74,4.7-4.64,6.44-1.66,1.52-3.73,2.26-6.32,2.26s-4.66-.74-6.32-2.27c-1.91-1.75-3.47-3.91-4.64-6.44-1.22-2.63-2.09-5.48-2.59-8.46-.51-3.08-.77-5.76-.77-7.97s.26-4.87.77-7.91ZM256.96,58.63l.19-.26c.17-.24,4.31-5.82,11.24-5.82,3.59,0,7.23,1.51,10.85,4.51l2.04-18.22c-2.81-.73-5.51-1.1-8.04-1.1-10,0-14.33,5.63-14.51,5.86l-1.77,2.39v-6.25h-19.46v66.06h19.46v-47.17ZM495.05,39.74v52.76l-.25.28c-.3.34-.65.7-1.02,1.06-.73.7-1.58,1.38-2.52,2.02-.85.57-1.82,1.04-2.89,1.38-1.03.34-2.2.51-3.47.51-1.7,0-3.01-.34-3.88-1.02-.96-.75-1.69-1.83-2.22-3.3-.63-1.73-1.04-3.92-1.24-6.51-.21-2.76-.32-5.96-.32-9.52v-37.66h-19.46v40.85c0,8.4,1.94,15.07,5.75,19.82,2.83,3.52,6.82,5.82,11.84,6.84.02,0,2.03.35,4.71.35,0,0,12.15.42,14.95-8.49v6.7h19.46V39.74h-19.46ZM431.53,105.8h19.46V15.41h-19.46v90.39ZM21.68,45.23c.78-2.71,1.85-5.43,3.17-8.08,1.28-2.56,2.89-4.88,4.78-6.91,1.84-1.97,4.05-3.58,6.57-4.79,2.44-1.17,5.38-1.84,8.73-1.99h.08c3.38.15,6.62.79,9.62,1.93,3.07,1.16,5.98,2.79,8.63,4.84l2.46,1.91,5.74-8.35-2.23-1.7c-3.55-2.7-7.48-4.85-11.68-6.39-4.25-1.56-8.82-2.35-13.56-2.35-1.31,0-2.64.06-3.95.17-1.32.12-2.63.33-3.95.65-5.95,1.01-11.24,2.95-15.71,5.77-4.49,2.83-8.31,6.37-11.35,10.53-3.01,4.13-5.3,8.84-6.8,14-1.48,5.1-2.24,10.53-2.24,16.14s.71,10.76,2.12,15.74c1.42,5.04,3.59,9.67,6.45,13.75,2.88,4.12,6.52,7.67,10.83,10.54,0,0,8.4,5.33,16.51,6.41,0,0-4.55,7.53-5.7,15.19l14.16,1.69c1.9-12.15,8.73-17.02,8.9-17.14,1.49-.35,2.94-.78,4.3-1.28,4.2-1.54,8.14-3.69,11.69-6.4l2.23-1.7-5.74-8.35-2.46,1.91c-2.65,2.05-5.56,3.68-8.68,4.84-3.05,1.14-6.35,1.79-9.79,1.93h-.08c-3.27-.14-6.16-.82-8.6-2.03-2.54-1.25-4.76-2.88-6.61-4.82-1.89-1.98-3.49-4.28-4.77-6.84-1.33-2.65-2.39-5.38-3.17-8.12-.79-2.77-1.34-5.51-1.65-8.17-.31-2.7-.47-5.1-.47-7.16s.17-4.56.52-7.23c.34-2.66.91-5.4,1.7-8.14ZM115.49,102.68v3.12h19.35v-44.51c-.08-3.45-.84-6.68-2.25-9.62-1.42-2.96-3.46-5.53-6.07-7.64-2.56-2.07-5.66-3.69-9.22-4.81-3.49-1.1-7.43-1.66-11.69-1.66s-7.89.78-10.94,2.33c-2.89,1.47-5.34,3.15-7.28,5.01-2.23,2.15-4.12,4.6-5.63,7.31l-1.21,2.18,8.44,6.75c1.66-3.51,7.11-13.46,15.69-13.46h.16c.05,0,.15,0,.29,0,7.51,0,10.17,6.28,10.17,11.65v.37l-.24.28c-.82.93-1.8,1.67-3.01,2.25-1.86.9-4.43,1.66-7.63,2.26-3.62.68-7.06,1.62-10.21,2.8-3.28,1.23-6.18,2.82-8.61,4.74-2.51,1.98-4.53,4.34-6.02,7.04-1.54,2.79-2.32,5.99-2.32,9.53s.73,6.74,2.18,9.29c1.44,2.53,3.42,4.59,5.91,6.11,2.35,1.45,5.13,2.49,8.23,3.1.03,0,2.75.45,6.21.45h0c5.06,0,12.89-2.28,15.72-6.9v2.04ZM115.3,92.25c-1.35,1.86-2.89,3.13-4.71,3.87-1.51.61-2.99.92-4.4.92-.6,0-1.2-.05-1.79-.16-1.89-.35-3.48-1.27-4.86-2.81-1.32-1.48-1.97-3.51-1.97-6.19,0-1.38.18-2.72.54-3.97.33-1.14.94-2.28,1.81-3.38.92-1.15,2.27-2.31,4.01-3.43,1.84-1.18,4.31-2.37,7.36-3.52,1.01-.38,1.96-.75,2.82-1.11l1.36-.58v20.11l-.19.26ZM425.19,118.9c-1.35-1.96-2.95-3.7-4.75-5.17-1.79-1.46-3.7-2.66-5.68-3.56-2.6-1.14-5.29-2.09-7.99-2.81-2.65-.71-5.47-1.33-8.41-1.85-2.88-.51-6.03-.99-9.38-1.43-3.26-.43-6.87-.97-10.72-1.62-.74-.12-1.55-.32-2.41-.6-.74-.24-1.41-.58-2.07-1.06-.57-.41-1.05-.95-1.47-1.66-.34-.58-.52-1.42-.52-2.47,0-.78.11-1.45.33-2,.26-.64.55-1.19.85-1.58l.54-.69.7.3c1.71.73,3.53,1.35,5.41,1.83,2.8.71,5.84,1.07,9.05,1.07,4.93,0,9.46-.82,13.46-2.45,3.99-1.62,7.44-3.79,10.28-6.46,2.86-2.69,5.08-5.86,6.61-9.41,1.53-3.55,2.31-7.31,2.31-11.18,0-5.1-1.36-9.89-4.03-14.22-1.37-2.22-3.06-4.25-5.03-6.02l-1.04-.94,1.25-.65.28-.15c2-1.09,3.72-2.22,5.1-3.35,1.53-1.28,2.85-2.63,3.92-4.02l1.91-2.47-12.17-8.26-1.33,3.46c-.59,1.53-1.42,2.85-2.54,4.03-1.01,1.06-2.45,2.09-4.28,3.06-1.67.88-3.95,1.43-6.79,1.65h-.12s-.12-.01-.12-.01c-1.11-.19-2.25-.35-3.4-.49-1.34-.16-2.77-.24-4.26-.24-4.92,0-9.42.78-13.36,2.32-3.95,1.53-7.39,3.63-10.22,6.22-2.86,2.62-5.1,5.71-6.63,9.18-1.54,3.48-2.32,7.17-2.32,10.97,0,4.44,1.03,8.69,3.06,12.64,1.34,2.61,3.09,5.01,5.19,7.14l.68.69-.68.69c-1.09,1.11-2.14,2.42-3.11,3.88-1.11,1.67-2.06,3.55-2.82,5.59-.81,2.17-1.23,4.55-1.23,7.06,0,3.4.94,6.54,2.79,9.34.03.05.07.09.1.14l.09.12c.93,1.21,6.1,7.35,17.02,8.92,2.63.5,5.01.88,7.05,1.13,2.39.29,4.58.56,6.57.81,1.95.25,3.86.52,5.68.8,1.71.27,3.62.72,5.69,1.33,1.83.52,3.63,1.24,5.33,2.12,1.66.86,3.16,1.89,4.45,3.05,4.16,3.75,5.31,11.12,2.71,15.41-15.52,25.6-75.3,1.51-75.3,1.51-95.88-37.44-134.98-21.46-173.09-2.03-30.49,15.54-44.47,13.32-50.83,13.94,0,0,70.5,55.71,211.84,3.02-58.73-21.21-134.82-7.06-134.82-7.06,0,0,64.55-28.03,144.23-.61,8.77,3.02,18.66,6.12,36.8,8.87,27.04,2.94,54.65-.22,56.03-31.05.13-2.82-.39-5.51-1.17-7.99-.77-2.48-1.85-4.74-3.21-6.71ZM376.28,60.18c.44-2.17,1.22-4.26,2.29-6.21,1.03-1.87,2.37-3.4,4.1-4.68,1.55-1.15,3.51-1.71,5.99-1.71s4.47.56,6.06,1.73c1.76,1.28,3.11,2.81,4.14,4.67,1.08,1.95,1.85,4.03,2.29,6.21.46,2.27.7,4.28.7,5.96s-.24,3.76-.7,6.15c-.45,2.29-1.22,4.47-2.31,6.49-1.04,1.94-2.4,3.54-4.17,4.89-1.58,1.21-3.54,1.8-6.01,1.8s-4.4-.58-5.94-1.78c-1.74-1.36-3.1-2.96-4.14-4.91-1.08-2.02-1.86-4.2-2.3-6.49-.47-2.38-.7-4.45-.7-6.15s.23-3.7.7-5.96Z"/>
</svg>